<svg width="72" height="76" viewBox="0 0 72 76" fill="none" xmlns="http://www.w3.org/2000/svg">
<rect x="5" y="69" width="62" height="62" rx="10" transform="rotate(-90 5 69)" fill="black"/>
<rect y="24.6913" width="49.3827" height="58.3613" rx="24.6913" transform="rotate(-30 0 24.6913)" fill="white"/>
<path d="M34.273 52H32.2905C31.8416 51.6229 31.5143 51.1743 31.3086 50.6543C31.1029 50.1343 31 49.5914 31 49.0257C31 48.4543 31.1247 47.8914 31.3741 47.3371C31.6234 46.7829 31.9725 46.3371 32.4214 46H34.6938V47.0286H32.9544C32.7923 47.2 32.6521 47.4714 32.5336 47.8429C32.4152 48.2086 32.3559 48.6 32.3559 49.0171C32.3559 49.4286 32.4089 49.8229 32.5149 50.2C32.6271 50.5714 32.7643 50.84 32.9264 51.0057H33.8241V48.6743H35.0585V50.1143C35.0585 50.9029 34.7966 51.5314 34.273 52Z" fill="black"/>
<path d="M38.5759 52L38.3795 51.0486H36.902L36.7056 52H35.4339L36.6963 46H38.632L39.829 52H38.5759ZM37.6221 47.1143L37.2574 49.1114L37.0516 50.1314H38.2206L38.0055 49.1114L37.6408 47.1143H37.6221Z" fill="black"/>
<path d="M42.7582 49.2571L43.2538 47.38L43.6559 46H44.8248L45.2456 52H44.0206L43.8429 48.7257H43.7962L43.1229 51.1429H42.356L41.6827 48.7257H41.636L41.4583 52H40.2333L40.6541 46H41.823L42.2251 47.38L42.7207 49.2571H42.7582Z" fill="black"/>
<path d="M45.999 52V46H49.3561V47.0286H47.2801V48.46H49.1317V49.4543H47.2801V51.0057H49.3935V52H45.999Z" fill="black"/>
<path d="M50.6248 46H52.8691V47.0286H51.0736L51.0456 47.08L52.5418 49.5829C52.8473 50.0857 53 50.4686 53 50.7314C53 51.3086 52.7912 51.7314 52.3735 52H49.8954V51.0057H51.8311L51.8591 50.9543L50.1759 48.1857C49.9328 47.7857 49.8112 47.46 49.8112 47.2086C49.8112 46.6143 50.0824 46.2114 50.6248 46Z" fill="black"/>
<path d="M26.6178 45L26.0167 41.5114H21.494L20.8929 45H17L20.8643 23H26.7896L30.4535 45H26.6178ZM23.6981 27.0857L22.5818 34.4086L21.952 38.1486H25.5301L24.8717 34.4086L23.7554 27.0857H23.6981Z" fill="black"/>
<path d="M34.991 41.3543H37.5672C38.1016 40.621 38.5214 39.5524 38.8267 38.1486C39.1511 36.7448 39.3133 35.3514 39.3133 33.9686C39.3133 30.679 38.7504 28.28 37.6245 26.7714H34.991V41.3543ZM31.0981 45V23H39.3992C42.109 25.64 43.4639 29.2229 43.4639 33.7486C43.4639 38.2533 42.1949 42.0038 39.6568 45H31.0981Z" fill="black"/>
<path d="M45.7294 23H52.5993V26.7714H47.1034L47.0175 26.96L51.5974 36.1371C52.5325 37.981 53 39.3848 53 40.3486C53 42.4648 52.3607 44.0152 51.0822 45H43.4967V41.3543H49.4219L49.5078 41.1657L44.3554 31.0143C43.6112 29.5476 43.2391 28.3533 43.2391 27.4314C43.2391 25.2524 44.0692 23.7752 45.7294 23Z" fill="black"/>
<path d="M55.805 13.1H55.05V12.5H57.24V13.1H56.485V16H55.805V13.1ZM58.6537 14.4H58.6337H58.6537L58.9187 13.305L59.1337 12.5H59.7587L59.9837 16H59.3287L59.2337 14.09H59.2087L58.8487 15.5H58.4387L58.0787 14.09H58.0537L57.9587 16H57.3037L57.5287 12.5H58.1537L58.3687 13.305L58.6337 14.4H58.6537Z" fill="white"/>
</svg>
