<svg width="62" height="62" viewBox="0 0 62 62" fill="none" xmlns="http://www.w3.org/2000/svg">
<rect y="62" width="62" height="62" rx="10" transform="rotate(-90 0 62)" fill="black"/>
<path d="M7.34568 39.0747C0.52735 27.265 4.57364 12.164 16.3833 5.34566C28.193 -1.47266 43.294 2.57364 50.1123 14.3833L54.6016 22.1591C61.42 33.9688 57.3737 49.0697 45.564 55.8881C33.7543 62.7064 18.6533 58.6601 11.835 46.8504L7.34568 39.0747Z" fill="white"/>
<path d="M29.273 45H27.2905C26.8416 44.6229 26.5143 44.1743 26.3086 43.6543C26.1029 43.1343 26 42.5914 26 42.0257C26 41.4543 26.1247 40.8914 26.3741 40.3371C26.6234 39.7829 26.9725 39.3371 27.4214 39H29.6938V40.0286H27.9544C27.7923 40.2 27.6521 40.4714 27.5336 40.8429C27.4152 41.2086 27.3559 41.6 27.3559 42.0171C27.3559 42.4286 27.4089 42.8229 27.5149 43.2C27.6271 43.5714 27.7643 43.84 27.9264 44.0057H28.8241V41.6743H30.0585V43.1143C30.0585 43.9029 29.7966 44.5314 29.273 45Z" fill="black"/>
<path d="M33.5759 45L33.3795 44.0486H31.902L31.7056 45H30.4339L31.6963 39H33.632L34.829 45H33.5759ZM32.6221 40.1143L32.2574 42.1114L32.0516 43.1314H33.2206L33.0055 42.1114L32.6408 40.1143H32.6221Z" fill="black"/>
<path d="M37.7582 42.2571L38.2538 40.38L38.6559 39H39.8248L40.2456 45H39.0206L38.8429 41.7257H38.7962L38.1229 44.1429H37.356L36.6827 41.7257H36.636L36.4583 45H35.2333L35.6541 39H36.823L37.2251 40.38L37.7207 42.2571H37.7582Z" fill="black"/>
<path d="M40.999 45V39H44.3561V40.0286H42.2801V41.46H44.1317V42.4543H42.2801V44.0057H44.3935V45H40.999Z" fill="black"/>
<path d="M45.6248 39H47.8691V40.0286H46.0736L46.0456 40.08L47.5418 42.5829C47.8473 43.0857 48 43.4686 48 43.7314C48 44.3086 47.7912 44.7314 47.3735 45H44.8954V44.0057H46.8311L46.8591 43.9543L45.1759 41.1857C44.9328 40.7857 44.8112 40.46 44.8112 40.2086C44.8112 39.6143 45.0824 39.2114 45.6248 39Z" fill="black"/>
<path d="M21.6178 38L21.0167 34.5114H16.494L15.8929 38H12L15.8643 16H21.7896L25.4535 38H21.6178ZM18.6981 20.0857L17.5818 27.4086L16.952 31.1486H20.5301L19.8717 27.4086L18.7554 20.0857H18.6981Z" fill="black"/>
<path d="M29.991 34.3543H32.5672C33.1016 33.621 33.5214 32.5524 33.8267 31.1486C34.1511 29.7448 34.3133 28.3514 34.3133 26.9686C34.3133 23.679 33.7504 21.28 32.6245 19.7714H29.991V34.3543ZM26.0981 38V16H34.3992C37.109 18.64 38.4639 22.2229 38.4639 26.7486C38.4639 31.2533 37.1949 35.0038 34.6568 38H26.0981Z" fill="black"/>
<path d="M40.7294 16H47.5993V19.7714H42.1034L42.0175 19.96L46.5974 29.1371C47.5325 30.981 48 32.3848 48 33.3486C48 35.4648 47.3607 37.0152 46.0822 38H38.4967V34.3543H44.4219L44.5078 34.1657L39.3554 24.0143C38.6112 22.5476 38.2391 21.3533 38.2391 20.4314C38.2391 18.2524 39.0692 16.7752 40.7294 16Z" fill="black"/>
<path d="M50.805 6.1H50.05V5.5H52.24V6.1H51.485V9H50.805V6.1ZM53.6537 7.4H53.6337H53.6537L53.9187 6.305L54.1337 5.5H54.7587L54.9837 9H54.3287L54.2337 7.09H54.2087L53.8487 8.5H53.4387L53.0787 7.09H53.0537L52.9587 9H52.3037L52.5287 5.5H53.1537L53.3687 6.305L53.6337 7.4H53.6537Z" fill="white"/>
</svg>
