<svg xmlns="http://www.w3.org/2000/svg" width="371.048" height="76.022" viewBox="0 0 371.048 76.022">
  <g id="Group_1" data-name="Group 1" transform="translate(-172.582 -91.692)">
    <path id="Path_2" data-name="Path 2" d="M35.724-42.042h-.39v.78h.39ZM47.19-12.636l-.546.546.234.156.468-.468Zm-3.042-.234h-.78v.39h.78Zm1.248.7c-.546.078-1.014.078-1.482.156a1.491,1.491,0,0,0-.7.7c-.39-.39-.7-.624-.858-.624-.234.39-.468.624-.7.624-.234-.546-.39-1.014-.468-1.248h-.858c-.312,0-1.95.234-2.34.312a.57.57,0,0,1-.546.468c-1.014-.312-1.014-1.4-1.092-2.262,0,.312-.312,1.248-.312,1.482a.659.659,0,0,1-.468-.156l.156-2.886c0-.39-.312-.546-.312-.624.546-.312.858-1.014.858-2.184a3.827,3.827,0,0,0-.234-1.014,6.443,6.443,0,0,0-1.092,1.014v-1.95H35.8v-3.276c-.39-.234-.624-.858-.546-1.872.078-1.638.078-2.5.078-2.574a.674.674,0,0,1-.468.234q-.468,0-.468-.936a12.921,12.921,0,0,1,.624-1.716,9.42,9.42,0,0,0,.624-1.872c0-.312-.858-1.326-.858-1.56.39-.234.546-1.17.624-2.73.078-2.5.078-3.978.078-4.368-.078,1.17-.078,2.652-.936,2.73a3.165,3.165,0,0,1-.39-1.326,5.964,5.964,0,0,1,.39-1.248c-.078-.078-.078-.234-.156-.39a10.009,10.009,0,0,0,.546-2.028c-.234.234-.468.234-.546.078a6.221,6.221,0,0,0,.546-1.638q.468-1.755.468-1.872V-52.65c0-.078-.078-.39-.156-1.092a3.722,3.722,0,0,1,0-1.326c0-.312.39-.78.39-1.092q0-1.287-1.872-2.574a6.056,6.056,0,0,0-3.042-1.326c-.39,0-.078.234-.468.234-.312,0-2.184-1.248-2.5-1.248s-.39.39-.7.39a1.853,1.853,0,0,1-1.014-.624c0,.078-.468.312-.468.624,0,.546.7,1.4.78,1.794.078,1.17.156,2.028.156,2.652.078.39.156,1.4.312,2.886a22.351,22.351,0,0,1,.234,2.808l-.39.156c-.468-.078-1.092.234-1.872.858a7.812,7.812,0,0,1-1.248,2.418c-.7,1.092-1.092,1.638-1.092,1.716,0-.234.078-.078.156.312.078.234-.078.546-.312.936-.39-.39-.546-.624-.468-.624a10.952,10.952,0,0,1-2.028,4.6A11.493,11.493,0,0,0,17.94-35.8a1.318,1.318,0,0,0-.39-.156c-.156,0-.234.39-.234,1.092,0-.078.078-.156.312-.156a1.27,1.27,0,0,1,.468.234,3.312,3.312,0,0,0-.39.936c-.7-.078-1.17.078-1.4.546-.234-.234-.39-.234-.546-.078a1.109,1.109,0,0,1,.156.468c0,.546-1.17,1.326-1.248,1.872.156,0,.234.078.234.312l-.468.624a1.206,1.206,0,0,1-.234-.468c-.078.39-.078.858-.156,1.326a1.3,1.3,0,0,1-.7,1.17.659.659,0,0,1-.156-.468c0,.468-.078.7-.156.7a.6.6,0,0,1,.078.858c-.468-.078-.78.156-.858.7a12.714,12.714,0,0,1-.39,1.638,8.243,8.243,0,0,0-2.34,2.964c-1.014,1.95-1.638,3.2-2.028,3.744.156.858.078,1.482-.312,1.716a7.159,7.159,0,0,1,.858,1.17,4.522,4.522,0,0,0-.7.78l-.39-.312c-.078-.7,0-1.092.234-1.248a.982.982,0,0,1-.546-.312A7.032,7.032,0,0,0,6.4-13.1a10.142,10.142,0,0,1-2.028.78,9.952,9.952,0,0,1-2.184.546s-.546-.078-1.638-.156a7.205,7.205,0,0,0-2.574.468c.078.234,1.248.858,1.248,1.17,0,.234-.234.39-.7.624a3.206,3.206,0,0,0-.624-1.014l-.312.936C-.546-8.5,1.872-7.254,2.5-5.3c0-.234.078-.39.234-.39a32.763,32.763,0,0,1,.78,3.9A3.179,3.179,0,0,0,4.836-.546c.078.858.156,1.17.156,1.014,0-.234.156-.312.39-.312.39,0,.936.468,1.248.468.39,0,1.248-.858,1.326-.936a3.623,3.623,0,0,0,.468-1.794c0-1.014,1.092-1.482,3.276-1.482.156,0,.234,0,.234.078s.078.156.234.156c.39,0,.312-.468.7-.468.312,0,.078.468.39.468s.858-.624,1.17-.624.234.39.624.39,1.4-1.17,1.638-1.248c.078.078.078.624.39.624.39,0,1.482-.858,1.794-.858.39,0,.078.234.468.234.312,0,.624-.858.858-1.092.312.624.546.936.7.858a4.877,4.877,0,0,1,2.184-1.014c.156,0,.234,0,.234.078,0,.234.858,0,1.092.312a2.144,2.144,0,0,1,.624-.858l.468.468c.234-.546.546-.858.936-.858a.207.207,0,0,1,.234.234c0,.078.078.156.234.156.39,0,3.042-.7,3.744-.7.078-.078.468-.624.7-.7a4.884,4.884,0,0,1,1.248.78,20.01,20.01,0,0,0,.39,3.51,13.459,13.459,0,0,1,.78,5.382.494.494,0,0,1,.39.468c0,.546-.234,2.028-.624,4.446a1.079,1.079,0,0,1,.546-.156q.351,0,.234.234c-.078.468-.156.624-.156.546.546-.234.858-.312,1.014-.078a1.078,1.078,0,0,0-.39.7c.546.078,1.4.936,1.326,1.482-.078-1.17.156-1.794.78-1.872a14.717,14.717,0,0,1,.468,1.638c.858.546,1.4.936,1.716,1.092.156-.234.234-.468.312-.546a4.4,4.4,0,0,1-.936-2.184c-.78-.39-1.17-.7-1.17-1.014.234-1.17.546-1.092,1.014-1.794a2.693,2.693,0,0,0-.936-1.794,5.735,5.735,0,0,1-.78,1.248l-.312-.312V3.276l1.014-.7c-.39-.234-.624-.468-.624-.78s.546-1.326.546-1.638a3.977,3.977,0,0,1,.7,1.092V.468a1.883,1.883,0,0,1-.7-1.716c.078-1.092.078-1.638.078-1.716a1.677,1.677,0,0,0-1.17.78A6.623,6.623,0,0,1,35.1-.624c-.312-1.014.312-2.574,1.326-2.652a1.037,1.037,0,0,1-.234-.546,1.206,1.206,0,0,0-.468.234.584.584,0,0,1-.078-.39A.886.886,0,0,1,35.88-4.6c.312.234.546.39.78.312a2.374,2.374,0,0,1-.624-.624.585.585,0,0,0,.39.078c0-.312.39-.7.624-.468-.39-.546-.234-1.482-.78-2.106C37.6-8.5,38.454-9.048,38.922-9.048c.234,0,.312.078.312.156s.078.078.234.078c.312,0,.7-.39,1.092-1.248a1.008,1.008,0,0,1,.156.624,12.181,12.181,0,0,0,1.014-1.014c.39.39.624.546.546.546.546-.546.78-.234,1.716-.936a2.474,2.474,0,0,1,1.4-.546ZM37.674,1.638l-.234.7.312.156.234-.858ZM28-53.82v-.546h.39v.546Zm5.616,9.672v-.78h.39v.78Zm-1.4,4.368v-1.014h.312v1.014Zm2.652,3.12h-.39l.234-1.17h.39Zm-2.652.624v-.546h.312v.546Zm1.014,1.482v-.78h.39v.78ZM29.8-38.3l-.312-.078.234-.546.312.078Zm3.744,5.07-.312-.156.234-.7h.312Zm.312.936v-1.326h.39v1.326Zm-2.964.858H30.5l.234-1.4h.39Zm3.12,4.368h-.39l.234-1.17h.39Zm-1.716-.78a4.723,4.723,0,0,1-1.014,2.106,6.592,6.592,0,0,1,.468-3.12C32.136-28.7,32.292-28.392,32.292-27.846Zm1.794,3.354v-.624H34.4v.624Zm.624,2.886H34.4l.312-1.17h.312ZM32.448-19.89a1.324,1.324,0,0,1-1.014-.312,2.38,2.38,0,0,1,1.014-.7ZM17.472-33.072l-.312-.078.234-.546.312.078Zm14.82,15.054L31.98-18.1l.234-.546.312.078Zm-.624,5.382c-.156.234-.312.312-.546.156a21.556,21.556,0,0,0-2.886-.078c-.39,0-.546-.234-.936-.234-.156,0-1.482,0-3.978-.078s-3.822-.156-3.978-.156c-.936,0-1.482.156-1.56.468l-.546-.468H14.43c-1.17,0-1.872-.234-2.106-.624,0,.078.078.156.156.234,2.028-3.666,3.042-6.474,3.12-8.5-.078-.234.078-.312.39-.312.39,0,.39.468.468.468l.312-.312c-.234-.234-.39-.312-.546-.156,0-.39.156-.624.39-.624s.7-.546,1.248-1.716a7.71,7.71,0,0,0,.858-2.262c-.234.078-.624.624-1.17,1.482v-.468l.156-.312a1.322,1.322,0,0,0,0-.78A4.872,4.872,0,0,0,19.032-28.7a3.2,3.2,0,0,1,1.872-1.56A6.1,6.1,0,0,1,22-33.072a7.21,7.21,0,0,0,1.248-2.808,1.109,1.109,0,0,0-.156-.468,3.7,3.7,0,0,0,2.184-2.574,28.772,28.772,0,0,1,1.014-3.042c.546-.7,1.014-1.17,1.326-1.56.546,1.794.546,4.68,1.17,6.318-.078,0-.078-.312-.078-.858a6.954,6.954,0,0,1,.858-.156c-.078.078-.234,1.4-.546,1.4-.39,0-.624,0-.546-.078v.78q.585.234.7,1.872v2.5a31.425,31.425,0,0,1,.312,6.552,2.736,2.736,0,0,0,.624.39c.546,4.836.858,7.644.936,8.346a1.957,1.957,0,0,0,.624.39Zm2.106-3.276-.312-.156.234-.468.312.078Zm4.992,6.318-.312-.156.312-.546.234.078Zm-6.318-5.928-.234-.546.312-.078.234.624Zm-16.3-15.912a5.374,5.374,0,0,1-.624-.234,1.674,1.674,0,0,1,.312-.546A.821.821,0,0,1,16.146-31.434ZM34.164-12.792c-.546,0-.78,0-.78.078,0-.234.234-1.248.234-1.638C33.618-14.586,33.774-14.04,34.164-12.792ZM15.132-28.626l-.312-.156.312-.7h.312Zm.156,2.418v-.546H15.6v.546Zm-.858-.312-.156-.234.7-.7.234.156ZM34.476-6.552V-7.566h.39v1.014Zm.7,1.482-.234-.546.234-.078.312.624ZM13.884-25.9a3.8,3.8,0,0,0,.546-.234,1.464,1.464,0,0,1,.234,1.014ZM36.036,1.014,35.724.936l.312-.7h.312ZM11.544-23.478c0,.546,0,.858-.078.858A1.206,1.206,0,0,0,11-22.854ZM7.878-17.394a3.626,3.626,0,0,1,.234-.7c0,.078.546.468.546.7Zm1.716,2.028v-.546h.39v.546ZM6.786,0,6.474-.156l.234-.7H7.02Zm9.2-21.762-.312.078.234.468h.312ZM50.067.838a4.043,4.043,0,0,1-2.99-1.257A4.137,4.137,0,0,1,45.84-3.428a4.2,4.2,0,0,1,1.238-3.028,4.013,4.013,0,0,1,2.99-1.276,4.118,4.118,0,0,1,3.047,1.276,4.168,4.168,0,0,1,1.257,3.028A4.105,4.105,0,0,1,53.114-.419,4.149,4.149,0,0,1,50.067.838Zm56.855-31.1a13.108,13.108,0,0,1-1.17-2.028,1.037,1.037,0,0,1,.546-.234c.234,0,.39.858.468.936v-2.5a1.292,1.292,0,0,1-.39-.936,2.722,2.722,0,0,0-.468-.7,3.366,3.366,0,0,1-1.716.312c0-.312.546-1.716.546-2.34a1,1,0,0,0-.312-.78c-.078.624-.156,1.092-.156,1.326a1.643,1.643,0,0,1-.624-.468,4.818,4.818,0,0,0-.312-2.418q-.819-.351-1.17-.468a1.731,1.731,0,0,1,.078-.7c-2.184-1.872-3.354-2.964-3.588-3.2a4.114,4.114,0,0,0-1.014.468,6.916,6.916,0,0,0-3.9-3.042c-.624-.234-2.106-.624-4.368-1.17a25.46,25.46,0,0,1-2.73-.858c-1.482-.546-2.262-.858-2.34-.858-.546,0-.156.234-.546.234s-1.092-.546-1.482-.546c-.234,0-1.092-.234-2.73-.624-1.56-.39-2.418-.624-2.652-.624s-1.014.078-2.418.156c-1.326.078-2.184.078-2.418.078-.39,0-.624-.78-1.17-.78-.39,0-.312.546-.7.546-.546,0,0-.546-.39-.546-.546,0-.858.546-.936.546a56.429,56.429,0,0,0-8.112.078q-.468.585-.7.936a3.622,3.622,0,0,0-1.4-.546,8.637,8.637,0,0,0-4.056.936,2.557,2.557,0,0,1-.468.624,2.358,2.358,0,0,0-.7-.468c-.39,0-2.418.546-2.808.546v.936c.858.858,1.716,1.638,2.574,2.5,1.482,1.482,2.574,2.184,3.12,2.184.39,0,1.092-.546,1.716-.546a7.457,7.457,0,0,1,2.34.624V-39a55.439,55.439,0,0,0,.39,6.084c-.156,5.382,1.248,13.416,4.134,24.1A42.327,42.327,0,0,0,68.468-3.2q-.234,1.521-3.042,2.574A6.726,6.726,0,0,0,66.44,2.34q.936,1.638,1.4,1.638c.39,0,.546-.078.624-.312a1.127,1.127,0,0,0-.156.546c0,.7,1.56,2.262,1.794,2.574a5.066,5.066,0,0,0,2.886-1.56c.312.312.468.546.468.78A111.151,111.151,0,0,0,89.762-4.68a45.539,45.539,0,0,1,5.382-3.9,1.117,1.117,0,0,1-.312-.78,1.6,1.6,0,0,1,.7-1.17c.312.312.468.468.39.468a9.585,9.585,0,0,1-.156,1.014c.234-.858.39-1.4.468-1.794A27.353,27.353,0,0,0,101.384-17c1.014-1.638,2.5-4.134,4.368-7.488l-.624.468c-.156-.156-.156-.312-.078-.39a6.116,6.116,0,0,0,1.482-2.886,3.845,3.845,0,0,1,.858-1.794c.078-.7.156-1.248.156-1.638ZM103.8-32.6h-.468l.234-1.482h.468Zm.936,1.092-.39-.78h.39l.312.624Zm.858,2.574a3.492,3.492,0,0,1,.312-1.56c0,.234.39.7.39.936Zm-.624,4.212c-.234.234-1.092.468-1.17.7,0-.312.312-1.638.312-2.184a4.557,4.557,0,0,0,.234,1.638A2.411,2.411,0,0,1,104.972-24.726Zm-2.652-1.4v-.936h.39v.936Zm.7,6.24-.312-.156.468-.936.312.156Zm-2.652.858-.624-.624.234-.312.7.7ZM96.7-17l-.39-.156.39-.7.312.156Zm5.928-14.04a2.525,2.525,0,0,1-.7,1.482,1.913,1.913,0,0,1,.078,1.482,3.9,3.9,0,0,0,.078,2.418,5.086,5.086,0,0,0-1.014,1.326,4.067,4.067,0,0,0-.78,1.716v1.4a19.7,19.7,0,0,0-2.418,2.808c-.858.546-1.638,1.014-2.418,1.56a3.3,3.3,0,0,0-1.638,2.34,1.355,1.355,0,0,1-.858-.468c-.234.234-.468.156-.7.39a1.167,1.167,0,0,1,.468,1.17c-.39-.234-.624-.468-.624-.78-1.872,1.4-3.276,2.5-4.134,3.276a4.559,4.559,0,0,1-.7,1.872,6.854,6.854,0,0,1-.546-1.014L84.614-7.956C83.132-6.63,82.2-5.928,81.65-5.928c-.39,0-.078-.234-.468-.234a11.814,11.814,0,0,0-1.56,1.092A4.336,4.336,0,0,1,77.75-4.056a19.3,19.3,0,0,0-5.07,1.248,16.87,16.87,0,0,1-1.326-3.354c-.234,0-.312.156-.312.468a1.464,1.464,0,0,1-1.014-.546,2,2,0,0,1,1.014-1.092,6.266,6.266,0,0,1-1.326-3.744,7.284,7.284,0,0,1,.858-3.2.886.886,0,0,0-.624-.234c-.234,0-.312.078-.312.156,0-.624.312-2.886.312-3.822a4.849,4.849,0,0,0-.624-.78,11.37,11.37,0,0,0,.312-1.326v-3.588c-.234.078-.39,0-.39-.39,0-.312.7-.39.39-2.5-.156-1.17-.234-2.184-.312-2.886a6.38,6.38,0,0,1,.858-.78c.234-4.758.39-9.36.39-13.728a7,7,0,0,1,2.652-.39c.312,0,1.716-.7,2.106-.7s.624.234,1.014.234q-.117,0,3.276-.234c.39,0,.78.234,1.17.234s.624-.234,1.014-.234c.312,0,2.028.78,2.574.78.39,0,1.17-.546,1.56-.546.312,0,2.028,1.014,2.886,1.248A21.985,21.985,0,0,1,98.654-39.7q3.393,2.457,3.51,7.722A1.717,1.717,0,0,1,102.632-31.044ZM85.316-7.41l-.39-.156.312-.7.39.156ZM69.248-17l-.39-.156.39-.7.312.156ZM67.3-11.388V-12.87h.468v1.482Zm1.092,3.51-.234-.312.624-.624.234.234ZM78.3,3.432l-.312-.156.312-.624.39.078ZM98.5-20.9l-.312.858.312.156.39-1.014ZM116.039.838a4.043,4.043,0,0,1-2.99-1.257,4.137,4.137,0,0,1-1.238-3.009,4.2,4.2,0,0,1,1.238-3.028,4.013,4.013,0,0,1,2.99-1.276,4.118,4.118,0,0,1,3.047,1.276,4.168,4.168,0,0,1,1.257,3.028,4.105,4.105,0,0,1-1.257,3.009A4.149,4.149,0,0,1,116.039.838ZM169.15-13.65a14.5,14.5,0,0,0-4.836-8.736,43.485,43.485,0,0,0-9.672-5.772c-3.978-1.794-7.956-3.666-11.934-5.46-4.6-2.34-7.644-4.29-9.2-5.928a1.127,1.127,0,0,1-.156.546,27.3,27.3,0,0,1-1.326-3.12,8.7,8.7,0,0,1-.78-3.51c0-.546-.156-.546,1.326-1.56a3.8,3.8,0,0,1,1.482-.858c.39,0,.546.546.936.546s.7-.312,1.092-.312a9.062,9.062,0,0,1,2.652.468,10.548,10.548,0,0,1,3.2,1.248,9.677,9.677,0,0,1,2.5,2.886q1.053,3.159,1.4,4.68a3.827,3.827,0,0,0,2.106,1.794c.156,0,.468-.7,1.014-2.028a12.087,12.087,0,0,1,1.092-2.5c.078-.078.546-.624,1.482-1.56.936-1.014,1.4-1.56,1.4-1.794a21.38,21.38,0,0,0,.39-2.184c-.078-.546-.078-1.014-.156-1.482a16.712,16.712,0,0,0-.936-1.872c2.184-3.276,3.822-5.694,4.836-7.176a6.251,6.251,0,0,0-1.872-1.092A5.9,5.9,0,0,0,153-59.358a9.816,9.816,0,0,0-1.872.468,24.567,24.567,0,0,1-2.5.78c-.468.078-1.092.7-1.872,1.794-.078.156-.234.858-.546,2.028-.234.858-.624,1.248-1.17,1.248a4.424,4.424,0,0,0-2.886-.936c-.39,0-2.184.156-2.574.156s-1.17.546-1.56.546c-.312,0-1.4-.312-1.716-.312-.39,0-2.5.39-3.042.39a1.23,1.23,0,0,0,.078.312c.078.078-.078.156-.312.156-.39,0-1.326-.858-1.638-.858a5.143,5.143,0,0,0-2.106.234c-.936.312-1.872.624-2.73.936-2.028,2.34-3.042,4.134-3.042,5.46,0,2.184.936,4.68,2.73,7.566,1.092,1.326,1.95,2.34,2.652,3.042,1.638,1.95,2.808,2.886,3.666,2.886a.76.76,0,0,0,.7-.312,7.059,7.059,0,0,1,.78,1.56c.858.39,1.482.624,1.872.78a24.574,24.574,0,0,0,7.02,3.042c.234,0,.7.7,1.092.7s.078-.546.468-.546.39.858.78.858c.312,0,.156-.312.546-.312.858,0,3.666,1.248,8.424,3.822,5.382,2.886,8.112,5.226,8.112,7.1,0,.546-1.17,1.56-1.248,1.872a3.847,3.847,0,0,0-.468,1.872c-.546.39-1.014.7-1.326.936-1.56,1.326-2.5,2.028-2.808,2.028-.39,0-.624-.234-1.014-.234-.546,0-1.014.624-1.482,1.95-.078,0-.156-.312-.7-.312-.39,0-1.794,1.638-2.184,1.872Q142.474-3.744,139.2-3.744H136.78a3.723,3.723,0,0,1-1.4-.858,6.521,6.521,0,0,0-1.482-.936,50.6,50.6,0,0,1,1.716-5.694c.858-1.56,1.482-2.73,2.028-3.588a3.147,3.147,0,0,0,.078-1.95c1.794-2.886,2.808-4.446,2.964-4.6C133.66-14.9,129.136-9.594,127.186-5.46q-.117.7.234.7.7,0,.7-.234c-.156.234-.312.546-.546.858-.078.234.078.546.39.936a1.208,1.208,0,0,1,.936.624A5.285,5.285,0,0,0,129.994-.78a5.713,5.713,0,0,0,.234,1.638,16.861,16.861,0,0,1,1.326,2.028,1.1,1.1,0,0,1,1.092.312A4.583,4.583,0,0,0,135.532,5.3l3.042.7a5.815,5.815,0,0,0,1.092.78c.39,0,1.326-.78,1.638-.78.858.078,1.482.078,1.95.156a24.173,24.173,0,0,1,4.29-1.092A60.537,60.537,0,0,0,157.762.624c1.482-.78,3.666-2.73,6.63-5.928,3.042-3.2,4.524-5.226,4.524-6.24C168.916-11.856,169.15-13.1,169.15-13.65ZM179.281.838a4.043,4.043,0,0,1-2.99-1.257,4.137,4.137,0,0,1-1.238-3.009,4.2,4.2,0,0,1,1.238-3.028,4.013,4.013,0,0,1,2.99-1.276,4.118,4.118,0,0,1,3.047,1.276,4.168,4.168,0,0,1,1.257,3.028,4.105,4.105,0,0,1-1.257,3.009A4.149,4.149,0,0,1,179.281.838ZM222.33-50.31l-1.17,1.092.312.312,1.092-1.17Zm30.654,31.122a20.45,20.45,0,0,0-.7-3.276,9.642,9.642,0,0,0-.936-2.808,15.753,15.753,0,0,0-2.574-1.794,2.8,2.8,0,0,1-1.872.7c-.312,0-2.028-.234-2.574-.234l-.624.312v7.644c0,.39.312,3.12.936,8.268,0,.546-1.014,1.17-1.872,1.716-.468.7-.78,1.326-1.014,1.716a1.373,1.373,0,0,1-.468-1.014,15.938,15.938,0,0,1-2.262,1.872,5.346,5.346,0,0,1-1.794.936c-.39,0-.078-.312-.468-.312.234,0-1.248.624-4.524,1.794a24.415,24.415,0,0,1-7.956,1.794A11.157,11.157,0,0,1,216.4-5.3a10.985,10.985,0,0,1-3.432-7.8,58.342,58.342,0,0,1,1.638-10.3,13.745,13.745,0,0,1,1.248-2.5,5.085,5.085,0,0,0,1.014-2.418,1.836,1.836,0,0,0-.156-.624l.468-.468a19.743,19.743,0,0,0,3.12-4.134,18.092,18.092,0,0,1,3.822-4.446c1.326-1.716,2.34-3.042,3.042-3.9,1.482-.7,2.574-1.248,3.354-1.638,1.17-.78,2.262-1.56,3.354-2.34a7.419,7.419,0,0,1,3.978-1.638,4.451,4.451,0,0,1,3.9,2.262,17.367,17.367,0,0,1,1.716,4.6,14.572,14.572,0,0,0,1.248,3.744h.858a14.352,14.352,0,0,1,3.042-1.248c2.106-.546,2.886-.936,2.886-3.432a9.408,9.408,0,0,0-1.716-5.148,9.149,9.149,0,0,0-3.9-3.666c-4.524-1.95-7.878-2.964-10.062-2.886a21.5,21.5,0,0,0-4.134.39c-1.014.312-1.794.546-2.262.7-.078.078-.234.7-.78.7a3.926,3.926,0,0,1-1.014-.312c-.858.234-1.638,1.326-2.5,3.276a8.555,8.555,0,0,1-.624-.78,1.348,1.348,0,0,0,.468-.936c-1.092.624-1.872,1.092-2.418,1.4-.312.468-.546.858-.7,1.092-.078-.078-.078-.156,0-.312,0-.078-.156-.156-.39-.156-.312,0-1.56,1.17-1.95,1.248a4.753,4.753,0,0,0,.312,1.326.972.972,0,0,1-.234.936c-.468-.546-.7-.78-.7-.78v-1.014a12.546,12.546,0,0,0-1.638,2.262c.39,0,1.17-.546,1.248-.546-.234-.234-.312-.468-.078-.7a1.4,1.4,0,0,1,.546.39,22.182,22.182,0,0,1-2.184,3.042c-.78,1.482-1.4,2.73-1.794,3.588a7.969,7.969,0,0,0-1.794.624c-.078.7-.156,1.482-.234,2.262a2.447,2.447,0,0,1-1.17,1.794v1.638a.607.607,0,0,0-.546-.234,1.405,1.405,0,0,1-.7,1.248c-.078-.078-.078-.312-.078-.7-.624,0-.936.234-1.014,1.872a3.6,3.6,0,0,1-.39,1.794,5.055,5.055,0,0,1-.858,3.042,1.6,1.6,0,0,1,.7.39l-.39.39c-.078,0-.078-.468-.468-.468s-.624.078-.624.312c-.546,2.574-.78,3.822-.78,3.588v7.332c1.872,3.978,2.886,6.006,2.964,6.24a14.28,14.28,0,0,0,5.46,5.694c1.17,1.17,2.262,2.5,3.12,2.5.39,0,.39-.234.78-.234.312,0,1.248,1.248,1.638,1.248a1.861,1.861,0,0,1,.858.234,1.078,1.078,0,0,1,.39-.7,3.02,3.02,0,0,0,2.028.936,4,4,0,0,0,.78-.078.854.854,0,0,1,.624,0,.708.708,0,0,0-.234.546,5.52,5.52,0,0,1,2.418-.312c1.326.078,2.028.156,2.262.156l.7-.78a4.282,4.282,0,0,0,1.482.468c.546,0,.546-.624.624-.624,1.326-.39,2.262-.7,2.886-.936a17.1,17.1,0,0,0,2.574-1.95c.234.39.39.624.468.78,2.574-2.34,4.29-3.9,5.3-4.758,0-.078.312-.078.936-.078.546,1.56,1.326,4.524,2.418,8.892,1.014,3.978,1.872,7.02,2.574,9.048.858-2.886,1.248-4.446,1.326-4.836.468-.624.7-.936.7-.858a17.95,17.95,0,0,0-.078-1.794V3.51c0-.936.078-2.34.156-4.134.078-1.872.156-3.276.156-4.212,0-.858-.468-3.042-.468-3.744.078-1.716.39-3.9.78-6.63Q252.984-19.305,252.984-19.188ZM220.458-44.07a16.351,16.351,0,0,1-2.184,2.652,5.849,5.849,0,0,1,1.56-3.276Zm-.936,4.68-.39-.156.312-.858h.39Zm-3.432,3.744v-.936h.468v.936Zm.39,3.042-.39-.156.39-.624.312.078ZM240.114-5.382l-.312-.156.312-.7.39.156Zm-2.34,1.95L237.54-4.6h.39l.312,1.17Zm-3.432,1.014-.312-.156.312-.624.312.156Zm.156,2.5-.234-1.716h.39l.312,1.716Zm-8.19.78-.39-.078.312-.858h.39ZM280.752-32.76c0-1.17-.468-1.794-1.326-1.794-.39,0-1.4.624-1.716.624-.39,0-.234-.234-.546-.234-.39,0-.936.546-1.716,1.716a8.363,8.363,0,0,1-1.17,1.638,4.735,4.735,0,0,1-1.716.468c-.312,0-.468-.39-.858-.39q-.234,0-2.34.468c-1.4.234-2.184.39-2.418.39-.312,0-.156-.468-.546-.468-.234,0-.468.234-.78.624-.468.546-.7.78-.78.858q-.819.468-1.17.7a14.457,14.457,0,0,0-1.092,2.574c-.7,1.17-1.326,2.34-2.028,3.51-.78,1.638-1.092,2.886-.858,3.744a2.129,2.129,0,0,1-.936.7c-.624,1.794-1.248,3.666-1.95,5.538a21.831,21.831,0,0,0-1.092,4.368A9.994,9.994,0,0,0,257.2-2.34a7.218,7.218,0,0,0,4.992,3.588c.078,0,.78.546,1.17.546.312,0,2.262-1.326,2.574-1.326s.078.234.39.234.39-.078.234-.234q-.585-1.287.936-2.34a4.543,4.543,0,0,1,.234,1.092c.312-.546.936-1.56,1.95-3.042a17.116,17.116,0,0,0,1.794-3.12,21.22,21.22,0,0,1,.858,3.9,5.624,5.624,0,0,1,.39,1.794c.078,0,.312-.234.7-.624a9.4,9.4,0,0,1,.312,1.716,3.054,3.054,0,0,0,.936,1.872,6.487,6.487,0,0,0,2.652,3.822c-.234-.234-.234-.39.078-.39a1.209,1.209,0,0,1,.858.546,4.777,4.777,0,0,0-.468.39A1.9,1.9,0,0,1,278.8,6.4c-.39-1.638-.7-2.808-.936-3.588,0,.312-.078.468-.156.468-.7,0-1.014-.39-1.014-1.17a1.292,1.292,0,0,1,.39-.936,1.464,1.464,0,0,1,.546,1.014c.078,0,.234-.234.624-.234.156,0,.234,0,.312.078v.156c-.078-.546-.312-1.326-.624-2.5-.234-1.17-.39-1.794-.39-1.95,0-.234.624-1.092.624-1.4a45.663,45.663,0,0,1-.312-5.3c0-.078-.468-.468-.468-.858,0,.546.156-.468.546-3.042a3.724,3.724,0,0,1-.312-.936,1.431,1.431,0,0,0,.468-1.17c-.078,0-.156-.078-.234-.156.546-3.744.936-6.63,1.014-8.658a18.968,18.968,0,0,0,.7-4.29,11.032,11.032,0,0,1,.546-2.5C280.518-31.9,280.752-32.6,280.752-32.76Zm-8.268,8.034a87.048,87.048,0,0,1-1.17,13.026c-.078.936-1.716,2.028-1.638,3.042-.39-.234-.7-.468-.936-.624a.96.96,0,0,0-.39,1.014c.078.858.078,1.248.078,1.326a8.289,8.289,0,0,0-1.092-.234,6.276,6.276,0,0,0-.7,1.092v-.858a13.856,13.856,0,0,1-4.68,3.822c-.234,0-.312-.156-.312-.546,0-3.432,1.482-8.736,4.368-15.99.858-1.326,1.638-2.652,2.418-3.978,1.482-2.34,2.418-3.51,2.964-3.51.156,0,.39.624.78,1.95C272.406-25.194,272.484-25.038,272.484-24.726ZM270.612-7.332l-.312-.156.234-.546.312.156Zm6.474,6.708V-1.17h.39v.546Zm-1.794,2.886V1.95l.468-.234.156.312Zm-7.332-4.68-.234-.234.78-.7.234.156ZM265.7-.468V-.78l.936-.468.156.234Zm4.914-10.452H270.3v.546h.312ZM322.638,4.29a5.063,5.063,0,0,0-.546-1.56,13.464,13.464,0,0,1-.624-1.638c-.7-4.212-1.17-7.332-1.482-9.36-.546-3.276-.858-5.928-1.014-8.034l-.546-11.934a11.524,11.524,0,0,1,.468-1.95,9.645,9.645,0,0,0,.546-2.028c0-1.716-1.17-2.574-3.432-2.574a27.188,27.188,0,0,0-3.432.078,2.679,2.679,0,0,0-1.248,1.014,12.079,12.079,0,0,1-.39,3.432c-1.326,3.588-2.106,5.772-2.34,6.63-.078,0,.156-.312-.39-.312a.428.428,0,0,0-.468.312,3.265,3.265,0,0,0-.078.546,7.477,7.477,0,0,1-1.482,3.666,8.11,8.11,0,0,0-.234,1.638l-.312-.39a6.756,6.756,0,0,1,.156-.78,11.535,11.535,0,0,1-1.014,1.716,27.607,27.607,0,0,1,.156-3.9c.156-2.652.234-4.758.234-6.24,0-1.326-.078-2.574-.156-3.588q-.234-.819-2.34-1.4a10.354,10.354,0,0,0-3.2-.7c-.39,0-1.716.312-1.95.312a1.469,1.469,0,0,1,.156.624q0,1.287-1.872,4.446c-1.014,1.638-1.95,3.2-2.964,4.836-.39.78-1.17,2.574-2.262,5.3a18.094,18.094,0,0,1-2.574,4.992l-.156-6.084c.39-4.6.7-8.034,1.092-10.3.078-.7.936-2.418.936-2.73q0-1.053-2.106-1.872a8.057,8.057,0,0,0-2.886-.7c-1.482,0-2.262,3.2-2.262,9.594a26.449,26.449,0,0,0,.234,4.212,1.782,1.782,0,0,0-.39,1.326,91.718,91.718,0,0,0,1.4,17.706,2.131,2.131,0,0,0,1.482,1.17,14.826,14.826,0,0,0,1.872.546,7.223,7.223,0,0,1,2.028,1.4,32.935,32.935,0,0,0,2.028-7.722c.234-2.262.468-4.6.7-6.942.468-3.822.858-6.24,1.092-7.332a17.721,17.721,0,0,1,1.794-4.446c1.014-1.872,1.872-2.886,2.652-2.964v10.53c-.234.234-.312.858-.234,2.028.078.546.156,1.56.39,3.042a14.208,14.208,0,0,1,.312,2.106,19.468,19.468,0,0,0,1.482,6.474A2.331,2.331,0,0,1,301.578-2.5c.39,0,.078-.234.468-.234-.078,0,1.014.546,3.276,1.716a63.986,63.986,0,0,0,2.652-8.5,93.131,93.131,0,0,1,3.2-12.246c.234-.7.624-1.014,1.17-1.014a81.727,81.727,0,0,0,.78,8.736c.156,1.248.546,4.056,1.248,8.346a2.921,2.921,0,0,1,.936-1.014.989.989,0,0,1,.078.468c0,.39-.624.936-.624,1.17a9.014,9.014,0,0,0,.078,2.262c.546,3.276,1.014,5.148,1.482,5.694a7.923,7.923,0,0,0,6.318,2.964ZM343-17.082c0-.078-.156-.936-.39-2.574a25.574,25.574,0,0,1-.312-3.432q-.117-8.073-.468-9.126a13.884,13.884,0,0,0-1.248-2.184c-.624-.078-2.652-.624-2.964-.624a18.1,18.1,0,0,0-4.836.858,16.4,16.4,0,0,0-4.524,1.95c-3.666,7.41-5.46,14.118-5.46,20.2A20.751,20.751,0,0,0,323.73-5.3a11.022,11.022,0,0,0,1.248,1.638,9.369,9.369,0,0,1,.78,2.184,19.293,19.293,0,0,0,3.744,3.51,9.678,9.678,0,0,0,2.184.7c0-.312,0-.546.078-.624a1.38,1.38,0,0,0,1.248.936c.39,0,1.248.156,1.482.156a3.735,3.735,0,0,0,.624-.858,1.055,1.055,0,0,0,.936.7,7.031,7.031,0,0,0,1.716-.39c.234,0,.078-.546.624-.546.156,0,.234.078.234.156s.078.078.312.078c1.17,0,1.716-1.4,2.34-2.574a1.779,1.779,0,0,0-.546-1.482A17.775,17.775,0,0,1,337.458.546,6.743,6.743,0,0,1,331.764-2.5a10.1,10.1,0,0,1-1.872-5.928,6.862,6.862,0,0,0-.078-1.092,2.162,2.162,0,0,1,0-1.014.861.861,0,0,1,.39-.78,40.864,40.864,0,0,0,6.318-2.028c1.014-.39,2.964-1.17,5.928-2.418A2.108,2.108,0,0,0,343-17.082Zm-5.538-7.566c0,.312-.546,1.638-.624,2.028a12.737,12.737,0,0,0,.078,1.95c-.312.156-.468.234-.468.312-.078,1.482-.156,2.652-.156,3.51-.312.624-1.482.624-2.418.858a17.614,17.614,0,0,1-3.2.78h-.7a2.323,2.323,0,0,1-.156-1.092,53.071,53.071,0,0,1,1.4-5.694q1.521-5.148,1.872-5.85a30.88,30.88,0,0,1,1.794-2.652,1.653,1.653,0,0,1,1.482-.468A32.846,32.846,0,0,1,337.458-24.648Zm29.172-13.26a25.234,25.234,0,0,0-1.014-2.574,19.271,19.271,0,0,1-3.276.156c-.156.39-.39.624-.7.624-.39,0-.624-.234-1.014-.234-.546,0-1.092.78-1.56,2.418-.39,1.638-.858,2.34-1.4,2.184a9.034,9.034,0,0,0-4.758-.156l.156.156c0,.39-.312.546-1.014.546-.39,0-.468-.312-.858-.312a6.889,6.889,0,0,0-2.5,1.4c-1.326.858-1.95,1.638-1.95,2.184a5.281,5.281,0,0,0,.468,1.248c.234,3.12,1.794,6.474,4.524,10.14,2.262,2.652,4.6,5.3,6.942,8.034,1.4,1.794,2.106,2.886,2.106,3.432,0,.624-1.014,1.794-1.092,2.808-1.248.858-2.184,1.56-2.808,2.028a11.387,11.387,0,0,0-1.17,1.56,13.334,13.334,0,0,1-4.6,1.092h-.78c-.39,0-.624-.468-.624-1.482,0-.078.078-.78.312-2.106a11.809,11.809,0,0,0,.312-2.964,18.075,18.075,0,0,0-.936-3.042c-3.51,6.63-5.3,10.374-5.3,11.388q0,.468,1.872,1.4l1.872,1.17a7.007,7.007,0,0,0,2.106,1.014c.39,0,.156-.234.546-.234a4.871,4.871,0,0,1,1.248.546,6.7,6.7,0,0,0,1.4.624c.312,0,1.716-.234,2.106-.234a8.556,8.556,0,0,0,2.964-.312A14.385,14.385,0,0,0,363.588.546c1.872-2.028,2.808-3.9,2.808-5.538a11.376,11.376,0,0,0-2.262-6.318,46.9,46.9,0,0,0-4.68-5.148,52.4,52.4,0,0,1-4.914-5.694,11.551,11.551,0,0,1-2.34-6.4,3.905,3.905,0,0,1,.546-1.95,2.1,2.1,0,0,1,1.794-1.4,4.271,4.271,0,0,1,1.326.624,5.114,5.114,0,0,0,1.17.546c.234,1.56.39,3.12.624,4.68a17.244,17.244,0,0,0,.936,4.134,10.908,10.908,0,0,0,1.092,1.248c.312.7.546,1.326.7,1.794a6.616,6.616,0,0,0,2.262-2.028,8.05,8.05,0,0,0-.078-1.482c1.014-5.148,1.716-8.97,2.184-11.544a9.162,9.162,0,0,1,1.014-2.34C366.318-37.284,366.63-37.83,366.63-37.908Z" transform="translate(177 155)"/>
    <path id="Path_1" data-name="Path 1" d="M35.724-42.042h-.39v.78h.39ZM47.19-12.636l-.546.546.234.156.468-.468Zm-3.042-.234h-.78v.39h.78Zm1.248.7c-.546.078-1.014.078-1.482.156a1.491,1.491,0,0,0-.7.7c-.39-.39-.7-.624-.858-.624-.234.39-.468.624-.7.624-.234-.546-.39-1.014-.468-1.248h-.858c-.312,0-1.95.234-2.34.312a.57.57,0,0,1-.546.468c-1.014-.312-1.014-1.4-1.092-2.262,0,.312-.312,1.248-.312,1.482a.659.659,0,0,1-.468-.156l.156-2.886c0-.39-.312-.546-.312-.624.546-.312.858-1.014.858-2.184a3.827,3.827,0,0,0-.234-1.014,6.443,6.443,0,0,0-1.092,1.014v-1.95H35.8v-3.276c-.39-.234-.624-.858-.546-1.872.078-1.638.078-2.5.078-2.574a.674.674,0,0,1-.468.234q-.468,0-.468-.936a12.921,12.921,0,0,1,.624-1.716,9.42,9.42,0,0,0,.624-1.872c0-.312-.858-1.326-.858-1.56.39-.234.546-1.17.624-2.73.078-2.5.078-3.978.078-4.368-.078,1.17-.078,2.652-.936,2.73a3.165,3.165,0,0,1-.39-1.326,5.964,5.964,0,0,1,.39-1.248c-.078-.078-.078-.234-.156-.39a10.009,10.009,0,0,0,.546-2.028c-.234.234-.468.234-.546.078a6.221,6.221,0,0,0,.546-1.638q.468-1.755.468-1.872V-52.65c0-.078-.078-.39-.156-1.092a3.722,3.722,0,0,1,0-1.326c0-.312.39-.78.39-1.092q0-1.287-1.872-2.574a6.056,6.056,0,0,0-3.042-1.326c-.39,0-.078.234-.468.234-.312,0-2.184-1.248-2.5-1.248s-.39.39-.7.39a1.853,1.853,0,0,1-1.014-.624c0,.078-.468.312-.468.624,0,.546.7,1.4.78,1.794.078,1.17.156,2.028.156,2.652.078.39.156,1.4.312,2.886a22.351,22.351,0,0,1,.234,2.808l-.39.156c-.468-.078-1.092.234-1.872.858a7.812,7.812,0,0,1-1.248,2.418c-.7,1.092-1.092,1.638-1.092,1.716,0-.234.078-.078.156.312.078.234-.078.546-.312.936-.39-.39-.546-.624-.468-.624a10.952,10.952,0,0,1-2.028,4.6A11.493,11.493,0,0,0,17.94-35.8a1.318,1.318,0,0,0-.39-.156c-.156,0-.234.39-.234,1.092,0-.078.078-.156.312-.156a1.27,1.27,0,0,1,.468.234,3.312,3.312,0,0,0-.39.936c-.7-.078-1.17.078-1.4.546-.234-.234-.39-.234-.546-.078a1.109,1.109,0,0,1,.156.468c0,.546-1.17,1.326-1.248,1.872.156,0,.234.078.234.312l-.468.624a1.206,1.206,0,0,1-.234-.468c-.078.39-.078.858-.156,1.326a1.3,1.3,0,0,1-.7,1.17.659.659,0,0,1-.156-.468c0,.468-.078.7-.156.7a.6.6,0,0,1,.078.858c-.468-.078-.78.156-.858.7a12.714,12.714,0,0,1-.39,1.638,8.243,8.243,0,0,0-2.34,2.964c-1.014,1.95-1.638,3.2-2.028,3.744.156.858.078,1.482-.312,1.716a7.159,7.159,0,0,1,.858,1.17,4.522,4.522,0,0,0-.7.78l-.39-.312c-.078-.7,0-1.092.234-1.248a.982.982,0,0,1-.546-.312A7.032,7.032,0,0,0,6.4-13.1a10.142,10.142,0,0,1-2.028.78,9.952,9.952,0,0,1-2.184.546s-.546-.078-1.638-.156a7.205,7.205,0,0,0-2.574.468c.078.234,1.248.858,1.248,1.17,0,.234-.234.39-.7.624a3.206,3.206,0,0,0-.624-1.014l-.312.936C-.546-8.5,1.872-7.254,2.5-5.3c0-.234.078-.39.234-.39a32.763,32.763,0,0,1,.78,3.9A3.179,3.179,0,0,0,4.836-.546c.078.858.156,1.17.156,1.014,0-.234.156-.312.39-.312.39,0,.936.468,1.248.468.39,0,1.248-.858,1.326-.936a3.623,3.623,0,0,0,.468-1.794c0-1.014,1.092-1.482,3.276-1.482.156,0,.234,0,.234.078s.078.156.234.156c.39,0,.312-.468.7-.468.312,0,.078.468.39.468s.858-.624,1.17-.624.234.39.624.39,1.4-1.17,1.638-1.248c.078.078.078.624.39.624.39,0,1.482-.858,1.794-.858.39,0,.078.234.468.234.312,0,.624-.858.858-1.092.312.624.546.936.7.858a4.877,4.877,0,0,1,2.184-1.014c.156,0,.234,0,.234.078,0,.234.858,0,1.092.312a2.144,2.144,0,0,1,.624-.858l.468.468c.234-.546.546-.858.936-.858a.207.207,0,0,1,.234.234c0,.078.078.156.234.156.39,0,3.042-.7,3.744-.7.078-.078.468-.624.7-.7a4.884,4.884,0,0,1,1.248.78,20.01,20.01,0,0,0,.39,3.51,13.459,13.459,0,0,1,.78,5.382.494.494,0,0,1,.39.468c0,.546-.234,2.028-.624,4.446a1.079,1.079,0,0,1,.546-.156q.351,0,.234.234c-.078.468-.156.624-.156.546.546-.234.858-.312,1.014-.078a1.078,1.078,0,0,0-.39.7c.546.078,1.4.936,1.326,1.482-.078-1.17.156-1.794.78-1.872a14.717,14.717,0,0,1,.468,1.638c.858.546,1.4.936,1.716,1.092.156-.234.234-.468.312-.546a4.4,4.4,0,0,1-.936-2.184c-.78-.39-1.17-.7-1.17-1.014.234-1.17.546-1.092,1.014-1.794a2.693,2.693,0,0,0-.936-1.794,5.735,5.735,0,0,1-.78,1.248l-.312-.312V3.276l1.014-.7c-.39-.234-.624-.468-.624-.78s.546-1.326.546-1.638a3.977,3.977,0,0,1,.7,1.092V.468a1.883,1.883,0,0,1-.7-1.716c.078-1.092.078-1.638.078-1.716a1.677,1.677,0,0,0-1.17.78A6.623,6.623,0,0,1,35.1-.624c-.312-1.014.312-2.574,1.326-2.652a1.037,1.037,0,0,1-.234-.546,1.206,1.206,0,0,0-.468.234.584.584,0,0,1-.078-.39A.886.886,0,0,1,35.88-4.6c.312.234.546.39.78.312a2.374,2.374,0,0,1-.624-.624.585.585,0,0,0,.39.078c0-.312.39-.7.624-.468-.39-.546-.234-1.482-.78-2.106C37.6-8.5,38.454-9.048,38.922-9.048c.234,0,.312.078.312.156s.078.078.234.078c.312,0,.7-.39,1.092-1.248a1.008,1.008,0,0,1,.156.624,12.181,12.181,0,0,0,1.014-1.014c.39.39.624.546.546.546.546-.546.78-.234,1.716-.936a2.474,2.474,0,0,1,1.4-.546ZM37.674,1.638l-.234.7.312.156.234-.858ZM28-53.82v-.546h.39v.546Zm5.616,9.672v-.78h.39v.78Zm-1.4,4.368v-1.014h.312v1.014Zm2.652,3.12h-.39l.234-1.17h.39Zm-2.652.624v-.546h.312v.546Zm1.014,1.482v-.78h.39v.78ZM29.8-38.3l-.312-.078.234-.546.312.078Zm3.744,5.07-.312-.156.234-.7h.312Zm.312.936v-1.326h.39v1.326Zm-2.964.858H30.5l.234-1.4h.39Zm3.12,4.368h-.39l.234-1.17h.39Zm-1.716-.78a4.723,4.723,0,0,1-1.014,2.106,6.592,6.592,0,0,1,.468-3.12C32.136-28.7,32.292-28.392,32.292-27.846Zm1.794,3.354v-.624H34.4v.624Zm.624,2.886H34.4l.312-1.17h.312ZM32.448-19.89a1.324,1.324,0,0,1-1.014-.312,2.38,2.38,0,0,1,1.014-.7ZM17.472-33.072l-.312-.078.234-.546.312.078Zm14.82,15.054L31.98-18.1l.234-.546.312.078Zm-.624,5.382c-.156.234-.312.312-.546.156a21.556,21.556,0,0,0-2.886-.078c-.39,0-.546-.234-.936-.234-.156,0-1.482,0-3.978-.078s-3.822-.156-3.978-.156c-.936,0-1.482.156-1.56.468l-.546-.468H14.43c-1.17,0-1.872-.234-2.106-.624,0,.078.078.156.156.234,2.028-3.666,3.042-6.474,3.12-8.5-.078-.234.078-.312.39-.312.39,0,.39.468.468.468l.312-.312c-.234-.234-.39-.312-.546-.156,0-.39.156-.624.39-.624s.7-.546,1.248-1.716a7.71,7.71,0,0,0,.858-2.262c-.234.078-.624.624-1.17,1.482v-.468l.156-.312a1.322,1.322,0,0,0,0-.78A4.872,4.872,0,0,0,19.032-28.7a3.2,3.2,0,0,1,1.872-1.56A6.1,6.1,0,0,1,22-33.072a7.21,7.21,0,0,0,1.248-2.808,1.109,1.109,0,0,0-.156-.468,3.7,3.7,0,0,0,2.184-2.574,28.772,28.772,0,0,1,1.014-3.042c.546-.7,1.014-1.17,1.326-1.56.546,1.794.546,4.68,1.17,6.318-.078,0-.078-.312-.078-.858a6.954,6.954,0,0,1,.858-.156c-.078.078-.234,1.4-.546,1.4-.39,0-.624,0-.546-.078v.78q.585.234.7,1.872v2.5a31.425,31.425,0,0,1,.312,6.552,2.736,2.736,0,0,0,.624.39c.546,4.836.858,7.644.936,8.346a1.957,1.957,0,0,0,.624.39Zm2.106-3.276-.312-.156.234-.468.312.078Zm4.992,6.318-.312-.156.312-.546.234.078Zm-6.318-5.928-.234-.546.312-.078.234.624Zm-16.3-15.912a5.374,5.374,0,0,1-.624-.234,1.674,1.674,0,0,1,.312-.546A.821.821,0,0,1,16.146-31.434ZM34.164-12.792c-.546,0-.78,0-.78.078,0-.234.234-1.248.234-1.638C33.618-14.586,33.774-14.04,34.164-12.792ZM15.132-28.626l-.312-.156.312-.7h.312Zm.156,2.418v-.546H15.6v.546Zm-.858-.312-.156-.234.7-.7.234.156ZM34.476-6.552V-7.566h.39v1.014Zm.7,1.482-.234-.546.234-.078.312.624ZM13.884-25.9a3.8,3.8,0,0,0,.546-.234,1.464,1.464,0,0,1,.234,1.014ZM36.036,1.014,35.724.936l.312-.7h.312ZM11.544-23.478c0,.546,0,.858-.078.858A1.206,1.206,0,0,0,11-22.854ZM7.878-17.394a3.626,3.626,0,0,1,.234-.7c0,.078.546.468.546.7Zm1.716,2.028v-.546h.39v.546ZM6.786,0,6.474-.156l.234-.7H7.02Zm9.2-21.762-.312.078.234.468h.312ZM50.067.838a4.043,4.043,0,0,1-2.99-1.257A4.137,4.137,0,0,1,45.84-3.428a4.2,4.2,0,0,1,1.238-3.028,4.013,4.013,0,0,1,2.99-1.276,4.118,4.118,0,0,1,3.047,1.276,4.168,4.168,0,0,1,1.257,3.028A4.105,4.105,0,0,1,53.114-.419,4.149,4.149,0,0,1,50.067.838Zm56.855-31.1a13.108,13.108,0,0,1-1.17-2.028,1.037,1.037,0,0,1,.546-.234c.234,0,.39.858.468.936v-2.5a1.292,1.292,0,0,1-.39-.936,2.722,2.722,0,0,0-.468-.7,3.366,3.366,0,0,1-1.716.312c0-.312.546-1.716.546-2.34a1,1,0,0,0-.312-.78c-.078.624-.156,1.092-.156,1.326a1.643,1.643,0,0,1-.624-.468,4.818,4.818,0,0,0-.312-2.418q-.819-.351-1.17-.468a1.731,1.731,0,0,1,.078-.7c-2.184-1.872-3.354-2.964-3.588-3.2a4.114,4.114,0,0,0-1.014.468,6.916,6.916,0,0,0-3.9-3.042c-.624-.234-2.106-.624-4.368-1.17a25.46,25.46,0,0,1-2.73-.858c-1.482-.546-2.262-.858-2.34-.858-.546,0-.156.234-.546.234s-1.092-.546-1.482-.546c-.234,0-1.092-.234-2.73-.624-1.56-.39-2.418-.624-2.652-.624s-1.014.078-2.418.156c-1.326.078-2.184.078-2.418.078-.39,0-.624-.78-1.17-.78-.39,0-.312.546-.7.546-.546,0,0-.546-.39-.546-.546,0-.858.546-.936.546a56.429,56.429,0,0,0-8.112.078q-.468.585-.7.936a3.622,3.622,0,0,0-1.4-.546,8.637,8.637,0,0,0-4.056.936,2.557,2.557,0,0,1-.468.624,2.358,2.358,0,0,0-.7-.468c-.39,0-2.418.546-2.808.546v.936c.858.858,1.716,1.638,2.574,2.5,1.482,1.482,2.574,2.184,3.12,2.184.39,0,1.092-.546,1.716-.546a7.457,7.457,0,0,1,2.34.624V-39a55.439,55.439,0,0,0,.39,6.084c-.156,5.382,1.248,13.416,4.134,24.1A42.327,42.327,0,0,0,68.468-3.2q-.234,1.521-3.042,2.574A6.726,6.726,0,0,0,66.44,2.34q.936,1.638,1.4,1.638c.39,0,.546-.078.624-.312a1.127,1.127,0,0,0-.156.546c0,.7,1.56,2.262,1.794,2.574a5.066,5.066,0,0,0,2.886-1.56c.312.312.468.546.468.78A111.151,111.151,0,0,0,89.762-4.68a45.539,45.539,0,0,1,5.382-3.9,1.117,1.117,0,0,1-.312-.78,1.6,1.6,0,0,1,.7-1.17c.312.312.468.468.39.468a9.585,9.585,0,0,1-.156,1.014c.234-.858.39-1.4.468-1.794A27.353,27.353,0,0,0,101.384-17c1.014-1.638,2.5-4.134,4.368-7.488l-.624.468c-.156-.156-.156-.312-.078-.39a6.116,6.116,0,0,0,1.482-2.886,3.845,3.845,0,0,1,.858-1.794c.078-.7.156-1.248.156-1.638ZM103.8-32.6h-.468l.234-1.482h.468Zm.936,1.092-.39-.78h.39l.312.624Zm.858,2.574a3.492,3.492,0,0,1,.312-1.56c0,.234.39.7.39.936Zm-.624,4.212c-.234.234-1.092.468-1.17.7,0-.312.312-1.638.312-2.184a4.557,4.557,0,0,0,.234,1.638A2.411,2.411,0,0,1,104.972-24.726Zm-2.652-1.4v-.936h.39v.936Zm.7,6.24-.312-.156.468-.936.312.156Zm-2.652.858-.624-.624.234-.312.7.7ZM96.7-17l-.39-.156.39-.7.312.156Zm5.928-14.04a2.525,2.525,0,0,1-.7,1.482,1.913,1.913,0,0,1,.078,1.482,3.9,3.9,0,0,0,.078,2.418,5.086,5.086,0,0,0-1.014,1.326,4.067,4.067,0,0,0-.78,1.716v1.4a19.7,19.7,0,0,0-2.418,2.808c-.858.546-1.638,1.014-2.418,1.56a3.3,3.3,0,0,0-1.638,2.34,1.355,1.355,0,0,1-.858-.468c-.234.234-.468.156-.7.39a1.167,1.167,0,0,1,.468,1.17c-.39-.234-.624-.468-.624-.78-1.872,1.4-3.276,2.5-4.134,3.276a4.559,4.559,0,0,1-.7,1.872,6.854,6.854,0,0,1-.546-1.014L84.614-7.956C83.132-6.63,82.2-5.928,81.65-5.928c-.39,0-.078-.234-.468-.234a11.814,11.814,0,0,0-1.56,1.092A4.336,4.336,0,0,1,77.75-4.056a19.3,19.3,0,0,0-5.07,1.248,16.87,16.87,0,0,1-1.326-3.354c-.234,0-.312.156-.312.468a1.464,1.464,0,0,1-1.014-.546,2,2,0,0,1,1.014-1.092,6.266,6.266,0,0,1-1.326-3.744,7.284,7.284,0,0,1,.858-3.2.886.886,0,0,0-.624-.234c-.234,0-.312.078-.312.156,0-.624.312-2.886.312-3.822a4.849,4.849,0,0,0-.624-.78,11.37,11.37,0,0,0,.312-1.326v-3.588c-.234.078-.39,0-.39-.39,0-.312.7-.39.39-2.5-.156-1.17-.234-2.184-.312-2.886a6.38,6.38,0,0,1,.858-.78c.234-4.758.39-9.36.39-13.728a7,7,0,0,1,2.652-.39c.312,0,1.716-.7,2.106-.7s.624.234,1.014.234q-.117,0,3.276-.234c.39,0,.78.234,1.17.234s.624-.234,1.014-.234c.312,0,2.028.78,2.574.78.39,0,1.17-.546,1.56-.546.312,0,2.028,1.014,2.886,1.248A21.985,21.985,0,0,1,98.654-39.7q3.393,2.457,3.51,7.722A1.717,1.717,0,0,1,102.632-31.044ZM85.316-7.41l-.39-.156.312-.7.39.156ZM69.248-17l-.39-.156.39-.7.312.156ZM67.3-11.388V-12.87h.468v1.482Zm1.092,3.51-.234-.312.624-.624.234.234ZM78.3,3.432l-.312-.156.312-.624.39.078ZM98.5-20.9l-.312.858.312.156.39-1.014ZM116.039.838a4.043,4.043,0,0,1-2.99-1.257,4.137,4.137,0,0,1-1.238-3.009,4.2,4.2,0,0,1,1.238-3.028,4.013,4.013,0,0,1,2.99-1.276,4.118,4.118,0,0,1,3.047,1.276,4.168,4.168,0,0,1,1.257,3.028,4.105,4.105,0,0,1-1.257,3.009A4.149,4.149,0,0,1,116.039.838ZM169.15-13.65a14.5,14.5,0,0,0-4.836-8.736,43.485,43.485,0,0,0-9.672-5.772c-3.978-1.794-7.956-3.666-11.934-5.46-4.6-2.34-7.644-4.29-9.2-5.928a1.127,1.127,0,0,1-.156.546,27.3,27.3,0,0,1-1.326-3.12,8.7,8.7,0,0,1-.78-3.51c0-.546-.156-.546,1.326-1.56a3.8,3.8,0,0,1,1.482-.858c.39,0,.546.546.936.546s.7-.312,1.092-.312a9.062,9.062,0,0,1,2.652.468,10.548,10.548,0,0,1,3.2,1.248,9.677,9.677,0,0,1,2.5,2.886q1.053,3.159,1.4,4.68a3.827,3.827,0,0,0,2.106,1.794c.156,0,.468-.7,1.014-2.028a12.087,12.087,0,0,1,1.092-2.5c.078-.078.546-.624,1.482-1.56.936-1.014,1.4-1.56,1.4-1.794a21.38,21.38,0,0,0,.39-2.184c-.078-.546-.078-1.014-.156-1.482a16.712,16.712,0,0,0-.936-1.872c2.184-3.276,3.822-5.694,4.836-7.176a6.251,6.251,0,0,0-1.872-1.092A5.9,5.9,0,0,0,153-59.358a9.816,9.816,0,0,0-1.872.468,24.567,24.567,0,0,1-2.5.78c-.468.078-1.092.7-1.872,1.794-.078.156-.234.858-.546,2.028-.234.858-.624,1.248-1.17,1.248a4.424,4.424,0,0,0-2.886-.936c-.39,0-2.184.156-2.574.156s-1.17.546-1.56.546c-.312,0-1.4-.312-1.716-.312-.39,0-2.5.39-3.042.39a1.23,1.23,0,0,0,.078.312c.078.078-.078.156-.312.156-.39,0-1.326-.858-1.638-.858a5.143,5.143,0,0,0-2.106.234c-.936.312-1.872.624-2.73.936-2.028,2.34-3.042,4.134-3.042,5.46,0,2.184.936,4.68,2.73,7.566,1.092,1.326,1.95,2.34,2.652,3.042,1.638,1.95,2.808,2.886,3.666,2.886a.76.76,0,0,0,.7-.312,7.059,7.059,0,0,1,.78,1.56c.858.39,1.482.624,1.872.78a24.574,24.574,0,0,0,7.02,3.042c.234,0,.7.7,1.092.7s.078-.546.468-.546.39.858.78.858c.312,0,.156-.312.546-.312.858,0,3.666,1.248,8.424,3.822,5.382,2.886,8.112,5.226,8.112,7.1,0,.546-1.17,1.56-1.248,1.872a3.847,3.847,0,0,0-.468,1.872c-.546.39-1.014.7-1.326.936-1.56,1.326-2.5,2.028-2.808,2.028-.39,0-.624-.234-1.014-.234-.546,0-1.014.624-1.482,1.95-.078,0-.156-.312-.7-.312-.39,0-1.794,1.638-2.184,1.872Q142.474-3.744,139.2-3.744H136.78a3.723,3.723,0,0,1-1.4-.858,6.521,6.521,0,0,0-1.482-.936,50.6,50.6,0,0,1,1.716-5.694c.858-1.56,1.482-2.73,2.028-3.588a3.147,3.147,0,0,0,.078-1.95c1.794-2.886,2.808-4.446,2.964-4.6C133.66-14.9,129.136-9.594,127.186-5.46q-.117.7.234.7.7,0,.7-.234c-.156.234-.312.546-.546.858-.078.234.078.546.39.936a1.208,1.208,0,0,1,.936.624A5.285,5.285,0,0,0,129.994-.78a5.713,5.713,0,0,0,.234,1.638,16.861,16.861,0,0,1,1.326,2.028,1.1,1.1,0,0,1,1.092.312A4.583,4.583,0,0,0,135.532,5.3l3.042.7a5.815,5.815,0,0,0,1.092.78c.39,0,1.326-.78,1.638-.78.858.078,1.482.078,1.95.156a24.173,24.173,0,0,1,4.29-1.092A60.537,60.537,0,0,0,157.762.624c1.482-.78,3.666-2.73,6.63-5.928,3.042-3.2,4.524-5.226,4.524-6.24C168.916-11.856,169.15-13.1,169.15-13.65ZM179.281.838a4.043,4.043,0,0,1-2.99-1.257,4.137,4.137,0,0,1-1.238-3.009,4.2,4.2,0,0,1,1.238-3.028,4.013,4.013,0,0,1,2.99-1.276,4.118,4.118,0,0,1,3.047,1.276,4.168,4.168,0,0,1,1.257,3.028,4.105,4.105,0,0,1-1.257,3.009A4.149,4.149,0,0,1,179.281.838ZM222.33-50.31l-1.17,1.092.312.312,1.092-1.17Zm30.654,31.122a20.45,20.45,0,0,0-.7-3.276,9.642,9.642,0,0,0-.936-2.808,15.753,15.753,0,0,0-2.574-1.794,2.8,2.8,0,0,1-1.872.7c-.312,0-2.028-.234-2.574-.234l-.624.312v7.644c0,.39.312,3.12.936,8.268,0,.546-1.014,1.17-1.872,1.716-.468.7-.78,1.326-1.014,1.716a1.373,1.373,0,0,1-.468-1.014,15.938,15.938,0,0,1-2.262,1.872,5.346,5.346,0,0,1-1.794.936c-.39,0-.078-.312-.468-.312.234,0-1.248.624-4.524,1.794a24.415,24.415,0,0,1-7.956,1.794A11.157,11.157,0,0,1,216.4-5.3a10.985,10.985,0,0,1-3.432-7.8,58.342,58.342,0,0,1,1.638-10.3,13.745,13.745,0,0,1,1.248-2.5,5.085,5.085,0,0,0,1.014-2.418,1.836,1.836,0,0,0-.156-.624l.468-.468a19.743,19.743,0,0,0,3.12-4.134,18.092,18.092,0,0,1,3.822-4.446c1.326-1.716,2.34-3.042,3.042-3.9,1.482-.7,2.574-1.248,3.354-1.638,1.17-.78,2.262-1.56,3.354-2.34a7.419,7.419,0,0,1,3.978-1.638,4.451,4.451,0,0,1,3.9,2.262,17.367,17.367,0,0,1,1.716,4.6,14.572,14.572,0,0,0,1.248,3.744h.858a14.352,14.352,0,0,1,3.042-1.248c2.106-.546,2.886-.936,2.886-3.432a9.408,9.408,0,0,0-1.716-5.148,9.149,9.149,0,0,0-3.9-3.666c-4.524-1.95-7.878-2.964-10.062-2.886a21.5,21.5,0,0,0-4.134.39c-1.014.312-1.794.546-2.262.7-.078.078-.234.7-.78.7a3.926,3.926,0,0,1-1.014-.312c-.858.234-1.638,1.326-2.5,3.276a8.555,8.555,0,0,1-.624-.78,1.348,1.348,0,0,0,.468-.936c-1.092.624-1.872,1.092-2.418,1.4-.312.468-.546.858-.7,1.092-.078-.078-.078-.156,0-.312,0-.078-.156-.156-.39-.156-.312,0-1.56,1.17-1.95,1.248a4.753,4.753,0,0,0,.312,1.326.972.972,0,0,1-.234.936c-.468-.546-.7-.78-.7-.78v-1.014a12.546,12.546,0,0,0-1.638,2.262c.39,0,1.17-.546,1.248-.546-.234-.234-.312-.468-.078-.7a1.4,1.4,0,0,1,.546.39,22.182,22.182,0,0,1-2.184,3.042c-.78,1.482-1.4,2.73-1.794,3.588a7.969,7.969,0,0,0-1.794.624c-.078.7-.156,1.482-.234,2.262a2.447,2.447,0,0,1-1.17,1.794v1.638a.607.607,0,0,0-.546-.234,1.405,1.405,0,0,1-.7,1.248c-.078-.078-.078-.312-.078-.7-.624,0-.936.234-1.014,1.872a3.6,3.6,0,0,1-.39,1.794,5.055,5.055,0,0,1-.858,3.042,1.6,1.6,0,0,1,.7.39l-.39.39c-.078,0-.078-.468-.468-.468s-.624.078-.624.312c-.546,2.574-.78,3.822-.78,3.588v7.332c1.872,3.978,2.886,6.006,2.964,6.24a14.28,14.28,0,0,0,5.46,5.694c1.17,1.17,2.262,2.5,3.12,2.5.39,0,.39-.234.78-.234.312,0,1.248,1.248,1.638,1.248a1.861,1.861,0,0,1,.858.234,1.078,1.078,0,0,1,.39-.7,3.02,3.02,0,0,0,2.028.936,4,4,0,0,0,.78-.078.854.854,0,0,1,.624,0,.708.708,0,0,0-.234.546,5.52,5.52,0,0,1,2.418-.312c1.326.078,2.028.156,2.262.156l.7-.78a4.282,4.282,0,0,0,1.482.468c.546,0,.546-.624.624-.624,1.326-.39,2.262-.7,2.886-.936a17.1,17.1,0,0,0,2.574-1.95c.234.39.39.624.468.78,2.574-2.34,4.29-3.9,5.3-4.758,0-.078.312-.078.936-.078.546,1.56,1.326,4.524,2.418,8.892,1.014,3.978,1.872,7.02,2.574,9.048.858-2.886,1.248-4.446,1.326-4.836.468-.624.7-.936.7-.858a17.95,17.95,0,0,0-.078-1.794V3.51c0-.936.078-2.34.156-4.134.078-1.872.156-3.276.156-4.212,0-.858-.468-3.042-.468-3.744.078-1.716.39-3.9.78-6.63Q252.984-19.305,252.984-19.188ZM220.458-44.07a16.351,16.351,0,0,1-2.184,2.652,5.849,5.849,0,0,1,1.56-3.276Zm-.936,4.68-.39-.156.312-.858h.39Zm-3.432,3.744v-.936h.468v.936Zm.39,3.042-.39-.156.39-.624.312.078ZM240.114-5.382l-.312-.156.312-.7.39.156Zm-2.34,1.95L237.54-4.6h.39l.312,1.17Zm-3.432,1.014-.312-.156.312-.624.312.156Zm.156,2.5-.234-1.716h.39l.312,1.716Zm-8.19.78-.39-.078.312-.858h.39ZM280.752-32.76c0-1.17-.468-1.794-1.326-1.794-.39,0-1.4.624-1.716.624-.39,0-.234-.234-.546-.234-.39,0-.936.546-1.716,1.716a8.363,8.363,0,0,1-1.17,1.638,4.735,4.735,0,0,1-1.716.468c-.312,0-.468-.39-.858-.39q-.234,0-2.34.468c-1.4.234-2.184.39-2.418.39-.312,0-.156-.468-.546-.468-.234,0-.468.234-.78.624-.468.546-.7.78-.78.858q-.819.468-1.17.7a14.457,14.457,0,0,0-1.092,2.574c-.7,1.17-1.326,2.34-2.028,3.51-.78,1.638-1.092,2.886-.858,3.744a2.129,2.129,0,0,1-.936.7c-.624,1.794-1.248,3.666-1.95,5.538a21.831,21.831,0,0,0-1.092,4.368A9.994,9.994,0,0,0,257.2-2.34a7.218,7.218,0,0,0,4.992,3.588c.078,0,.78.546,1.17.546.312,0,2.262-1.326,2.574-1.326s.078.234.39.234.39-.078.234-.234q-.585-1.287.936-2.34a4.543,4.543,0,0,1,.234,1.092c.312-.546.936-1.56,1.95-3.042a17.116,17.116,0,0,0,1.794-3.12,21.22,21.22,0,0,1,.858,3.9,5.624,5.624,0,0,1,.39,1.794c.078,0,.312-.234.7-.624a9.4,9.4,0,0,1,.312,1.716,3.054,3.054,0,0,0,.936,1.872,6.487,6.487,0,0,0,2.652,3.822c-.234-.234-.234-.39.078-.39a1.209,1.209,0,0,1,.858.546,4.777,4.777,0,0,0-.468.39A1.9,1.9,0,0,1,278.8,6.4c-.39-1.638-.7-2.808-.936-3.588,0,.312-.078.468-.156.468-.7,0-1.014-.39-1.014-1.17a1.292,1.292,0,0,1,.39-.936,1.464,1.464,0,0,1,.546,1.014c.078,0,.234-.234.624-.234.156,0,.234,0,.312.078v.156c-.078-.546-.312-1.326-.624-2.5-.234-1.17-.39-1.794-.39-1.95,0-.234.624-1.092.624-1.4a45.663,45.663,0,0,1-.312-5.3c0-.078-.468-.468-.468-.858,0,.546.156-.468.546-3.042a3.724,3.724,0,0,1-.312-.936,1.431,1.431,0,0,0,.468-1.17c-.078,0-.156-.078-.234-.156.546-3.744.936-6.63,1.014-8.658a18.968,18.968,0,0,0,.7-4.29,11.032,11.032,0,0,1,.546-2.5C280.518-31.9,280.752-32.6,280.752-32.76Zm-8.268,8.034a87.048,87.048,0,0,1-1.17,13.026c-.078.936-1.716,2.028-1.638,3.042-.39-.234-.7-.468-.936-.624a.96.96,0,0,0-.39,1.014c.078.858.078,1.248.078,1.326a8.289,8.289,0,0,0-1.092-.234,6.276,6.276,0,0,0-.7,1.092v-.858a13.856,13.856,0,0,1-4.68,3.822c-.234,0-.312-.156-.312-.546,0-3.432,1.482-8.736,4.368-15.99.858-1.326,1.638-2.652,2.418-3.978,1.482-2.34,2.418-3.51,2.964-3.51.156,0,.39.624.78,1.95C272.406-25.194,272.484-25.038,272.484-24.726ZM270.612-7.332l-.312-.156.234-.546.312.156Zm6.474,6.708V-1.17h.39v.546Zm-1.794,2.886V1.95l.468-.234.156.312Zm-7.332-4.68-.234-.234.78-.7.234.156ZM265.7-.468V-.78l.936-.468.156.234Zm4.914-10.452H270.3v.546h.312ZM322.638,4.29a5.063,5.063,0,0,0-.546-1.56,13.464,13.464,0,0,1-.624-1.638c-.7-4.212-1.17-7.332-1.482-9.36-.546-3.276-.858-5.928-1.014-8.034l-.546-11.934a11.524,11.524,0,0,1,.468-1.95,9.645,9.645,0,0,0,.546-2.028c0-1.716-1.17-2.574-3.432-2.574a27.188,27.188,0,0,0-3.432.078,2.679,2.679,0,0,0-1.248,1.014,12.079,12.079,0,0,1-.39,3.432c-1.326,3.588-2.106,5.772-2.34,6.63-.078,0,.156-.312-.39-.312a.428.428,0,0,0-.468.312,3.265,3.265,0,0,0-.078.546,7.477,7.477,0,0,1-1.482,3.666,8.11,8.11,0,0,0-.234,1.638l-.312-.39a6.756,6.756,0,0,1,.156-.78,11.535,11.535,0,0,1-1.014,1.716,27.607,27.607,0,0,1,.156-3.9c.156-2.652.234-4.758.234-6.24,0-1.326-.078-2.574-.156-3.588q-.234-.819-2.34-1.4a10.354,10.354,0,0,0-3.2-.7c-.39,0-1.716.312-1.95.312a1.469,1.469,0,0,1,.156.624q0,1.287-1.872,4.446c-1.014,1.638-1.95,3.2-2.964,4.836-.39.78-1.17,2.574-2.262,5.3a18.094,18.094,0,0,1-2.574,4.992l-.156-6.084c.39-4.6.7-8.034,1.092-10.3.078-.7.936-2.418.936-2.73q0-1.053-2.106-1.872a8.057,8.057,0,0,0-2.886-.7c-1.482,0-2.262,3.2-2.262,9.594a26.449,26.449,0,0,0,.234,4.212,1.782,1.782,0,0,0-.39,1.326,91.718,91.718,0,0,0,1.4,17.706,2.131,2.131,0,0,0,1.482,1.17,14.826,14.826,0,0,0,1.872.546,7.223,7.223,0,0,1,2.028,1.4,32.935,32.935,0,0,0,2.028-7.722c.234-2.262.468-4.6.7-6.942.468-3.822.858-6.24,1.092-7.332a17.721,17.721,0,0,1,1.794-4.446c1.014-1.872,1.872-2.886,2.652-2.964v10.53c-.234.234-.312.858-.234,2.028.078.546.156,1.56.39,3.042a14.208,14.208,0,0,1,.312,2.106,19.468,19.468,0,0,0,1.482,6.474A2.331,2.331,0,0,1,301.578-2.5c.39,0,.078-.234.468-.234-.078,0,1.014.546,3.276,1.716a63.986,63.986,0,0,0,2.652-8.5,93.131,93.131,0,0,1,3.2-12.246c.234-.7.624-1.014,1.17-1.014a81.727,81.727,0,0,0,.78,8.736c.156,1.248.546,4.056,1.248,8.346a2.921,2.921,0,0,1,.936-1.014.989.989,0,0,1,.078.468c0,.39-.624.936-.624,1.17a9.014,9.014,0,0,0,.078,2.262c.546,3.276,1.014,5.148,1.482,5.694a7.923,7.923,0,0,0,6.318,2.964ZM343-17.082c0-.078-.156-.936-.39-2.574a25.574,25.574,0,0,1-.312-3.432q-.117-8.073-.468-9.126a13.884,13.884,0,0,0-1.248-2.184c-.624-.078-2.652-.624-2.964-.624a18.1,18.1,0,0,0-4.836.858,16.4,16.4,0,0,0-4.524,1.95c-3.666,7.41-5.46,14.118-5.46,20.2A20.751,20.751,0,0,0,323.73-5.3a11.022,11.022,0,0,0,1.248,1.638,9.369,9.369,0,0,1,.78,2.184,19.293,19.293,0,0,0,3.744,3.51,9.678,9.678,0,0,0,2.184.7c0-.312,0-.546.078-.624a1.38,1.38,0,0,0,1.248.936c.39,0,1.248.156,1.482.156a3.735,3.735,0,0,0,.624-.858,1.055,1.055,0,0,0,.936.7,7.031,7.031,0,0,0,1.716-.39c.234,0,.078-.546.624-.546.156,0,.234.078.234.156s.078.078.312.078c1.17,0,1.716-1.4,2.34-2.574a1.779,1.779,0,0,0-.546-1.482A17.775,17.775,0,0,1,337.458.546,6.743,6.743,0,0,1,331.764-2.5a10.1,10.1,0,0,1-1.872-5.928,6.862,6.862,0,0,0-.078-1.092,2.162,2.162,0,0,1,0-1.014.861.861,0,0,1,.39-.78,40.864,40.864,0,0,0,6.318-2.028c1.014-.39,2.964-1.17,5.928-2.418A2.108,2.108,0,0,0,343-17.082Zm-5.538-7.566c0,.312-.546,1.638-.624,2.028a12.737,12.737,0,0,0,.078,1.95c-.312.156-.468.234-.468.312-.078,1.482-.156,2.652-.156,3.51-.312.624-1.482.624-2.418.858a17.614,17.614,0,0,1-3.2.78h-.7a2.323,2.323,0,0,1-.156-1.092,53.071,53.071,0,0,1,1.4-5.694q1.521-5.148,1.872-5.85a30.88,30.88,0,0,1,1.794-2.652,1.653,1.653,0,0,1,1.482-.468A32.846,32.846,0,0,1,337.458-24.648Zm29.172-13.26a25.234,25.234,0,0,0-1.014-2.574,19.271,19.271,0,0,1-3.276.156c-.156.39-.39.624-.7.624-.39,0-.624-.234-1.014-.234-.546,0-1.092.78-1.56,2.418-.39,1.638-.858,2.34-1.4,2.184a9.034,9.034,0,0,0-4.758-.156l.156.156c0,.39-.312.546-1.014.546-.39,0-.468-.312-.858-.312a6.889,6.889,0,0,0-2.5,1.4c-1.326.858-1.95,1.638-1.95,2.184a5.281,5.281,0,0,0,.468,1.248c.234,3.12,1.794,6.474,4.524,10.14,2.262,2.652,4.6,5.3,6.942,8.034,1.4,1.794,2.106,2.886,2.106,3.432,0,.624-1.014,1.794-1.092,2.808-1.248.858-2.184,1.56-2.808,2.028a11.387,11.387,0,0,0-1.17,1.56,13.334,13.334,0,0,1-4.6,1.092h-.78c-.39,0-.624-.468-.624-1.482,0-.078.078-.78.312-2.106a11.809,11.809,0,0,0,.312-2.964,18.075,18.075,0,0,0-.936-3.042c-3.51,6.63-5.3,10.374-5.3,11.388q0,.468,1.872,1.4l1.872,1.17a7.007,7.007,0,0,0,2.106,1.014c.39,0,.156-.234.546-.234a4.871,4.871,0,0,1,1.248.546,6.7,6.7,0,0,0,1.4.624c.312,0,1.716-.234,2.106-.234a8.556,8.556,0,0,0,2.964-.312A14.385,14.385,0,0,0,363.588.546c1.872-2.028,2.808-3.9,2.808-5.538a11.376,11.376,0,0,0-2.262-6.318,46.9,46.9,0,0,0-4.68-5.148,52.4,52.4,0,0,1-4.914-5.694,11.551,11.551,0,0,1-2.34-6.4,3.905,3.905,0,0,1,.546-1.95,2.1,2.1,0,0,1,1.794-1.4,4.271,4.271,0,0,1,1.326.624,5.114,5.114,0,0,0,1.17.546c.234,1.56.39,3.12.624,4.68a17.244,17.244,0,0,0,.936,4.134,10.908,10.908,0,0,0,1.092,1.248c.312.7.546,1.326.7,1.794a6.616,6.616,0,0,0,2.262-2.028,8.05,8.05,0,0,0-.078-1.482c1.014-5.148,1.716-8.97,2.184-11.544a9.162,9.162,0,0,1,1.014-2.34C366.318-37.284,366.63-37.83,366.63-37.908Z" transform="translate(175 153)" fill="#fff"/>
  </g>
</svg>
